<svg width="29" height="30" viewBox="0 0 29 30" fill="none" xmlns="http://www.w3.org/2000/svg">
<path d="M1.12695 28.2871C1.16434 28.2871 3.67696 28.2871 8.47493 28.1081C12.8498 27.9449 15.879 26.8531 17.9412 25.9017C22.472 23.8112 23.6663 21.2601 25.0508 18.6817C25.7768 17.3297 25.8221 14.4372 25.8202 10.9586C25.1914 7.32563 24.142 5.05343 23.3017 3.83977C22.918 3.30706 22.6212 2.94322 21.9814 2.30664" stroke="#0496FF" stroke-width="2" stroke-linecap="round"/>
<path d="M20.9434 7.31641C20.9966 6.39505 21.3557 3.98688 21.6865 2.64614C21.7653 2.32675 21.8712 2.0828 22.1052 1.95546C22.7109 1.82813 23.4241 1.86165 24.5237 1.93644C25.2929 1.97771 26.4911 2.02573 27.7256 2.0752" stroke="#0496FF" stroke-width="2" stroke-linecap="round"/>
</svg>
