<svg width="245" height="133" viewBox="0 0 245 133" fill="none" xmlns="http://www.w3.org/2000/svg">
<path d="M3.50232 16.3783C3.45836 16.4699 3.41439 16.5616 5.10569 33.6395C6.797 50.7175 10.2249 84.779 12.1115 101.836C13.9981 118.894 14.2396 117.914 14.4883 116.906" stroke="#0496FF" stroke-width="6" stroke-linecap="round"/>
<path d="M53.5011 28.3783C53.4611 28.4699 53.4211 28.5616 54.9587 45.6395C56.4962 62.7175 59.6125 96.779 61.3276 113.836C63.0427 130.894 63.2622 129.914 63.4883 128.906" stroke="#0496FF" stroke-width="6" stroke-linecap="round"/>
<path d="M185.501 3.37827C185.461 3.46991 185.421 3.56155 186.959 20.6395C188.496 37.7175 191.612 71.779 193.328 88.8363C195.043 105.894 195.262 104.914 195.488 103.906" stroke="#0496FF" stroke-width="6" stroke-linecap="round"/>
<path d="M231.501 15.3783C231.461 15.4699 231.421 15.5616 232.959 32.6395C234.496 49.7175 237.612 83.779 239.328 100.836C241.043 117.894 241.262 116.914 241.488 115.906" stroke="#0496FF" stroke-width="6" stroke-linecap="round"/>
<path d="M4.95309 13.605C4.95309 13.7677 14.688 17.1556 30.1986 22.3081C35.9535 24.2199 37.4955 24.4493 45.582 24.8178C53.6685 25.1862 68.274 25.6214 76.6946 25.5808C86.9242 25.5313 91.3647 24.237 99.0947 23.0488C111.894 21.0813 121.108 17.9352 124.359 16.52C127.781 15.0308 130.594 14.022 136.701 11.978C141.847 10.2559 151.414 7.99562 157.341 6.562C169.111 3.71483 173.995 3.97485 181.814 3.54043C188.526 3.16753 200.837 3.12547 208.285 3.20099C221.075 3.33069 223.908 6.66502 226.952 8.32659C227.87 8.9147 228.971 9.76784 229.804 10.401C230.636 11.0341 231.168 11.4214 232.33 12.3092" stroke="#0496FF" stroke-width="6" stroke-linecap="round"/>
<path d="M4.95309 13.605C4.95309 13.7677 14.688 17.1556 30.1986 22.3081C35.9535 24.2199 37.4955 24.4493 45.582 24.8178C53.6685 25.1862 68.274 25.6214 76.6946 25.5808C86.9242 25.5313 91.3647 24.237 99.0947 23.0488C111.894 21.0813 121.108 17.9352 124.359 16.52C127.781 15.0308 130.594 14.022 136.701 11.978C141.847 10.2559 151.414 7.99562 157.341 6.562C169.111 3.71483 173.995 3.97485 181.814 3.54043C188.526 3.16753 200.837 3.12547 208.285 3.20099C221.075 3.33069 223.908 6.66502 226.952 8.32659C227.87 8.9147 228.971 9.76784 229.804 10.401C230.636 11.0341 231.168 11.4214 232.33 12.3092" stroke="#0496FF" stroke-width="6" stroke-linecap="round"/>
<path d="M14 117.435C14 117.598 23.7349 120.986 39.2455 126.138C45.0004 128.05 46.5424 128.28 54.6289 128.648C62.7154 129.017 77.3209 129.452 85.7415 129.411C95.9711 129.362 100.412 128.067 108.142 126.879C120.941 124.912 130.155 121.765 133.406 120.35C136.828 118.861 139.641 117.852 145.748 115.808C150.894 114.086 160.461 111.826 166.387 110.392C178.158 107.545 183.041 107.805 190.861 107.371C197.573 106.998 209.884 106.956 217.332 107.031C230.122 107.161 232.955 110.495 235.999 112.157C236.917 112.745 238.017 113.598 238.85 114.231C239.683 114.864 240.215 115.252 241.376 116.14" stroke="#0496FF" stroke-width="6" stroke-linecap="round"/>
<path d="M111.408 64.3532C110.43 61.9388 107.149 56.2517 105.51 53.6534C103.868 51.0492 103.312 48.3223 102.533 45.4494C102.349 44.7704 102.138 44.1746 102.316 43.8734C103.345 42.1246 106.813 45.1954 109.756 46.4286C110.453 46.7208 111.016 46.7862 111.497 46.6435C114.116 45.8672 114.756 41.032 115.33 37.814C115.479 36.9812 115.921 36.2853 116.524 35.9999C119.652 34.5192 123.179 39.4887 125.472 40.6627C126.536 41.2077 127.329 42.0863 128.268 42.4696C130.706 43.4644 132.051 39.1969 133.789 37.6402C135.621 35.9989 138.074 35.3099 140.443 35.2154C145.572 35.0107 141.725 49.9135 140.594 53.6293C139.811 55.3067 139.055 56.7335 138.513 57.7968C138.287 58.3409 138.159 58.8942 138.027 59.4642" stroke="#0496FF" stroke-width="6" stroke-linecap="round"/>
<path d="M110.908 65.4027C109.739 64.7078 106.15 62.5601 99.3502 61.2774C95.1824 60.4911 90.5597 59.667 86.3084 59.4931C85.6096 59.4645 85.0835 59.2969 84.8342 59.7135C83.2156 62.4182 87.4498 65.5299 88.9078 68.0645C89.2592 68.6753 89.5907 69.1733 89.0204 69.5614C85.5007 71.9565 81.0323 71.0574 78.0087 71.8044C77.4418 71.9445 76.9493 72.2063 76.9276 72.5427C76.7847 74.7621 80.714 75.0589 84.1291 76.0691C86.2247 76.689 87.7421 77.6146 88.4522 77.8757C90.7367 78.7159 82.5511 80.2154 79.4272 81.5977C78.7009 81.919 78.2671 82.2966 79.1289 82.7135C84.6049 85.3625 91.2992 84.0752 96.2576 83.3619C100.788 82.8638 104.605 82.4251 106.31 82.0799C107.222 81.9316 108.228 81.8378 108.778 81.4839" stroke="#0496FF" stroke-width="6" stroke-linecap="round"/>
<path d="M140.85 58.4555C141.364 57.3657 144.312 54.1619 148.115 50.152C151.055 47.0528 152.164 44.9324 154.114 44.1955C156.287 43.3741 154.524 48.6801 153.857 50.4024C153.563 51.1625 153.364 51.6937 154.335 51.415C160.685 49.5927 162.831 47.9009 165.676 47.4633C166.783 47.2931 168.443 47.2702 169.088 47.4676C171.534 48.2154 165.849 53.4429 164.883 55.4025C163.501 58.2045 170.343 59.1251 171.693 60.9514C172.034 61.4117 172.504 61.7467 172.327 62.0824C170.693 65.1846 164.925 65.0365 161.155 66.689C156.919 68.5451 153.161 68.8838 149.545 69.9051C147.529 70.3241 145.97 71.0211 145.106 71.9941C144.701 72.4856 144.365 72.9725 143.307 74.1254" stroke="#0496FF" stroke-width="6" stroke-linecap="round"/>
<path d="M109.359 81.2467C108.561 82.6839 105.651 86.0184 101.829 89.8736C101.11 90.5986 100.631 90.9032 100.291 91.4841C99.9521 92.065 99.7373 92.8818 99.9474 93.3262C100.969 95.4865 106.543 92.4931 109.631 90.8071C113.433 88.7317 116.624 87.6985 124.75 86.2336C129.602 85.3591 127.308 94.6736 127.816 98.0333C128.025 99.4098 128.216 100.741 128.723 101.709C129.254 102.721 131.242 102.265 132.608 101.883C133.196 101.719 133.351 101.08 133.443 100.52C133.823 98.2111 132.566 95.6821 132.282 92.487C132.068 90.0828 131.04 87.6468 130.91 84.208C130.88 83.4253 131.572 82.9428 132.221 82.7678C135.018 82.0131 137.674 83.13 140.884 83.1201C144.644 83.1085 148.864 82.7688 151.546 82.3769C154.104 82.003 155.946 81.1357 156.473 80.7654C158.032 79.6697 152.367 78.8354 148.988 77.1657C147.413 76.3787 146.131 75.8513 144.842 75.7391C144.089 75.7652 143.136 75.96 141.552 76.5593" stroke="#0496FF" stroke-width="6" stroke-linecap="round"/>
</svg>
