<svg width="246" height="133" viewBox="0 0 246 133" fill="none" xmlns="http://www.w3.org/2000/svg">
<path d="M4.50232 16.7423C4.45836 16.834 4.41439 16.9256 6.10569 34.0036C7.797 51.0815 11.2249 85.143 13.1115 102.2C14.9981 119.258 15.2396 118.279 15.4883 117.27" stroke="#0496FF" stroke-width="6" stroke-linecap="round"/>
<path d="M54.5011 28.7423C54.4611 28.834 54.4211 28.9256 55.9587 46.0036C57.4962 63.0815 60.6125 97.1431 62.3276 114.2C64.0427 131.258 63.7739 128.509 64 127.5" stroke="#0496FF" stroke-width="6" stroke-linecap="round"/>
<path d="M186.501 3.74232C186.461 3.83397 186.421 3.92561 187.959 21.0036C189.496 38.0815 192.612 72.143 194.328 89.2003C196.043 106.258 196.262 105.279 196.488 104.27" stroke="#0496FF" stroke-width="6" stroke-linecap="round"/>
<path d="M232.501 15.7423C232.461 15.834 232.421 15.9256 233.959 33.0036C235.496 50.0815 238.612 84.143 240.328 101.2C242.043 118.258 242.262 117.279 242.488 116.27" stroke="#0496FF" stroke-width="6" stroke-linecap="round"/>
<path d="M5.95309 13.9691C5.95309 14.1318 15.688 17.5197 31.1986 22.6722C36.9535 24.584 38.4955 24.8134 46.582 25.1818C54.6685 25.5502 69.274 25.9855 77.6946 25.9448C87.9242 25.8954 92.3647 24.6011 100.095 23.4128C112.894 21.4454 122.108 18.2992 125.359 16.8841C128.781 15.3949 131.594 14.386 137.701 12.3421C142.847 10.62 152.414 8.35968 158.341 6.92606C170.111 4.07889 174.995 4.33891 182.814 3.90449C189.526 3.53159 201.837 3.48953 209.285 3.56505C222.075 3.69475 224.908 7.02908 227.952 8.69065C228.87 9.27876 229.971 10.1319 230.804 10.765C231.636 11.3982 232.168 11.7855 233.33 12.6733" stroke="#0496FF" stroke-width="6" stroke-linecap="round"/>
<path d="M3.5 12.3421C3.5 12.5048 15.688 17.5197 31.1986 22.6722C36.9535 24.584 38.4955 24.8134 46.582 25.1818C54.6685 25.5502 69.274 25.9855 77.6946 25.9448C87.9242 25.8954 92.3647 24.6011 100.095 23.4128C112.894 21.4454 122.108 18.2992 125.359 16.8841C128.781 15.3949 131.594 14.386 137.701 12.3421C142.847 10.62 152.414 8.35968 158.341 6.92606C170.111 4.07889 174.995 4.33891 182.814 3.90449C189.526 3.53159 201.837 3.48953 209.285 3.56505C222.075 3.69475 224.908 7.02908 227.952 8.69065C228.87 9.27876 229.971 10.1319 230.804 10.765C231.636 11.3982 232.168 11.7855 233.33 12.6733" stroke="#0496FF" stroke-width="6" stroke-linecap="round"/>
<path d="M15 117.799C15 117.962 24.7349 121.35 40.2455 126.503C46.0004 128.414 47.5424 128.644 55.6289 129.012C63.7154 129.381 78.3209 129.816 86.7415 129.775C96.9711 129.726 101.412 128.431 109.142 127.243C121.941 125.276 131.155 122.13 134.406 120.714C137.828 119.225 140.641 118.216 146.748 116.172C151.894 114.45 161.461 112.19 167.387 110.756C179.158 107.909 184.041 108.169 191.861 107.735C198.573 107.362 210.884 107.32 218.332 107.395C231.122 107.525 233.955 110.859 236.999 112.521C237.917 113.109 239.017 113.962 239.85 114.595C240.683 115.228 241.215 115.616 242.376 116.504" stroke="#0496FF" stroke-width="6" stroke-linecap="round"/>
<path d="M95.5 65L92.5 58L109.5 61L101.5 42.8641L112.5 46.5L118.5 31.5C120.833 33.3333 124.6 38.6 127 41C129.4 43.4 132.333 38.3333 136.5 34.5L136 53.5L147.5 43.8641L150 49.8641L162.5 47.3641L159.5 59L165.5 62.5L148.5 77L154 83L129 86.5L132 108L130 110L127 86.8641L103 94.8641L107 88L85 81.3641L90 77L83.5 68L95.5 65Z" fill="#0496FF"/>
<path d="M13 117.364L0.5 12L22 19.8641L54.5 24.8641L62.5 128.364L47 128.364L13 117.364Z" fill="#0496FF"/>
<path d="M196.071 106.964L188 4H219.274L236.929 12.0362L244.5 116L223.814 106.964H196.071Z" fill="#0496FF"/>
</svg>
