<svg width="370" height="84" viewBox="0 0 370 84" fill="none" xmlns="http://www.w3.org/2000/svg">
<g filter="url(#filter0_dd_13_60)">
<path d="M33.6816 21.5283C33.5895 22.2086 33.4973 22.8889 33.5277 25.2481C33.558 27.6072 33.7137 31.6246 34.0774 35.0638C34.4412 38.5029 35.0084 41.2422 35.338 43.3019C35.6675 45.3616 35.7423 46.6587 35.8193 47.9951" stroke="#0496FF" stroke-width="10" stroke-linecap="round"/>
<path d="M36.5342 33.3994C37.3985 32.7961 41.7731 31.8112 48.7127 30.5083C53.6949 29.317 56.647 28.2845 58.2766 27.4446C58.9858 27.0575 59.456 26.7497 60.2451 26.0693" stroke="#0496FF" stroke-width="10" stroke-linecap="round"/>
<path d="M49.2637 34.0664C49.1876 34.1418 48.7669 34.9367 48.2804 36.4119C47.848 37.7232 49.6935 39.5548 53.3094 42.387C55.7797 44.1342 59.5399 46.5106 61.6602 47.9027C63.7805 49.2948 64.1469 49.6306 64.6533 50.251" stroke="#0496FF" stroke-width="10" stroke-linecap="round"/>
<path d="M74.6396 28.1846C74.6396 29.7392 74.6396 32.3853 74.7692 36.3588C75.0168 43.9535 76.2805 45.7569 76.8721 46.5954C77.249 47.1297 79.1244 46.6777 82.8892 46.1595C85.2425 45.9322 88.4948 45.7775 90.1416 45.4753C91.7883 45.1731 91.731 44.7281 91.6719 44.0508" stroke="#0496FF" stroke-width="10" stroke-linecap="round"/>
<path d="M76.6289 34.9824C77.013 34.9341 77.3972 34.8857 79.8182 34.6456C82.2393 34.4054 86.6856 33.9748 91.541 33.1699" stroke="#0496FF" stroke-width="10" stroke-linecap="round"/>
<path d="M73.6191 23.0713C73.8154 22.9927 74.0117 22.914 75.4165 22.6607C76.8213 22.4073 79.4288 21.9816 81.358 21.571C83.2873 21.1604 84.4594 20.7779 85.8848 20.3838" stroke="#0496FF" stroke-width="10" stroke-linecap="round"/>
<path d="M97.7295 25.1602C98.2563 25.4097 100.051 27.0628 102.755 31.625C104.792 35.061 107.484 41.1616 109.146 44.1438C110.808 47.1259 111.182 46.9042 112.238 45.4112C113.295 43.9182 115.024 41.1605 116.211 39.0943C118.102 35.7996 119.055 32.938 119.821 30.2975C120.278 28.2935 120.67 26.6676 121.104 25.1495C121.299 24.4004 121.441 23.6943 121.964 23.0527" stroke="#0496FF" stroke-width="10" stroke-linecap="round"/>
<path d="M134.062 22.2422C134.052 22.7585 133.996 25.0647 134.285 30.4167C134.464 33.7409 135.353 38.2498 135.825 40.9316C136.822 45.2583 137.099 46.1123 137.132 46.8765C137.165 47.2198 137.231 47.4728 137.3 47.7334" stroke="#0496FF" stroke-width="10" stroke-linecap="round"/>
<path d="M149.95 20.8223C149.95 21.4404 149.95 22.0585 150.082 24.6376C150.213 27.2167 150.477 31.7381 150.902 34.9898C151.327 38.2415 151.907 40.0864 152.258 41.1509C152.609 42.2155 152.713 42.4436 152.821 42.6787" stroke="#0496FF" stroke-width="10" stroke-linecap="round"/>
<path d="M150.481 20.7891C150.519 20.751 151.343 21.2857 153.147 22.4437C155.245 23.7912 157.573 25.0804 160.997 27.851C163.418 29.8102 166.993 33.1743 169.118 35.3343C171.964 38.2259 172.553 39.7479 173.078 40.0574C173.326 39.9931 173.534 39.4795 173.668 36.3794C173.801 33.2793 173.853 27.6084 173.833 21.082" stroke="#0496FF" stroke-width="10" stroke-linecap="round"/>
<path d="M201.688 18.5264C201.726 18.6018 203.634 21.1379 206.972 25.3721C208.422 27.1091 209.376 28.0101 210.582 28.9601C211.788 29.9101 213.217 30.8817 214.689 31.8828" stroke="#0496FF" stroke-width="10" stroke-linecap="round"/>
<path d="M225.854 21.5127C224.768 23.1485 222.912 25.9389 218.718 32.4005C215.264 37.7226 214.498 39.957 213.346 43.3717C212.618 45.0352 212.061 46.2263 211.817 46.9375C211.714 47.271 211.656 47.5487 211.481 48.5186" stroke="#0496FF" stroke-width="10" stroke-linecap="round"/>
<path d="M237.505 45.1533H237.447" stroke="#0496FF" stroke-width="10" stroke-linecap="round"/>
<path d="M265.665 17.6074C265.627 17.6448 265.607 19.5928 265.887 24.1715C266.05 26.8311 266.727 30.1339 267.06 33.7344C267.392 37.3348 267.481 41.1227 271.124 43.0834C274.766 45.0441 281.96 45.0628 289.314 45.082" stroke="#0496FF" stroke-width="10" stroke-linecap="round"/>
<path d="M301.625 21.6191C301.625 21.6565 301.671 23.2752 301.793 26.0166C301.873 27.8023 302.627 30.4292 303.803 34.1666C305.146 37.4024 306.03 39.435 306.309 40.6235C306.436 41.3018 306.53 42.1329 306.628 43.584" stroke="#0496FF" stroke-width="10" stroke-linecap="round"/>
<path d="M322.102 19.3311C322.023 20.2398 322.03 23.9071 322.225 29.17C322.399 33.863 324.726 37.6885 326.574 40.1617C327.596 41.5298 332.255 41.7766 337.783 42.3201C341.009 42.6372 342.713 42.413 344.606 41.7428C347.903 40.5753 350.452 36.8119 351.804 33.1631C352.479 28.8661 352.383 25.0371 351.86 23.2638C351.433 22.1965 350.678 20.7895 349.9 19.2822" stroke="#0496FF" stroke-width="10" stroke-linecap="round"/>
</g>
<defs>
<filter id="filter0_dd_13_60" x="0.521797" y="0.607422" width="368.76" height="82.6437" filterUnits="userSpaceOnUse" color-interpolation-filters="sRGB">
<feFlood flood-opacity="0" result="BackgroundImageFix"/>
<feColorMatrix in="SourceAlpha" type="matrix" values="0 0 0 0 0 0 0 0 0 0 0 0 0 0 0 0 0 0 127 0" result="hardAlpha"/>
<feOffset dx="-8" dy="8"/>
<feGaussianBlur stdDeviation="10"/>
<feComposite in2="hardAlpha" operator="out"/>
<feColorMatrix type="matrix" values="0 0 0 0 0.0156863 0 0 0 0 0.588235 0 0 0 0 1 0 0 0 0.6 0"/>
<feBlend mode="normal" in2="BackgroundImageFix" result="effect1_dropShadow_13_60"/>
<feColorMatrix in="SourceAlpha" type="matrix" values="0 0 0 0 0 0 0 0 0 0 0 0 0 0 0 0 0 0 127 0" result="hardAlpha"/>
<feOffset dx="-4" dy="4"/>
<feGaussianBlur stdDeviation="4"/>
<feComposite in2="hardAlpha" operator="out"/>
<feColorMatrix type="matrix" values="0 0 0 0 0.0156863 0 0 0 0 0.588235 0 0 0 0 1 0 0 0 0.4 0"/>
<feBlend mode="normal" in2="effect1_dropShadow_13_60" result="effect2_dropShadow_13_60"/>
<feBlend mode="normal" in="SourceGraphic" in2="effect2_dropShadow_13_60" result="shape"/>
</filter>
</defs>
</svg>
