<svg width="372" height="115" viewBox="0 0 372 115" fill="none" xmlns="http://www.w3.org/2000/svg">
<g filter="url(#filter0_d_16_163)">
<path d="M50 22.5L34 14.5L48 50.5L31 67L52.5 73.5L62.5 71V77.5L80.5 82H121H209H312.5L331 77.5V71H344.5L361 64L348 52L344.5 44.5L348 40.5L357 14.5L344.5 20H331L315.5 14.5L312.5 17V27L83 29.5L80.5 22.5L76 17L62.5 22.5H50Z" fill="#250038" stroke="black"/>
<path d="M70.9023 30.2402C71.1705 30.1055 71.4386 29.9708 109.258 29.4635C147.077 28.9561 222.438 28.0802 264.7 27.832C306.961 27.5838 313.838 27.9898 317.677 28.2606C321.516 28.5313 322.107 28.6544 322.717 28.7812" stroke="#0496FF" stroke-width="3" stroke-linecap="round"/>
<path d="M70.9395 30.2617C68.0382 30.0368 62.9793 29.3036 62.0893 28.5463C61.6294 28.1549 61.5338 27.3887 61.6795 26.8679C62.3004 24.6487 65.827 24.6574 72.8811 23.3535C76.0019 22.7766 77.5961 20.9233 78.5355 19.2223C78.7717 18.7947 78.5373 18.2457 78.0634 17.9668C75.6444 16.5435 72.8651 18.5291 70.4183 19.5887C66.4142 21.3227 63.0514 21.2741 54.586 21.2567C48.4504 21.2441 44.7271 19.3471 39.2458 17.6323C37.4998 16.8426 36.3942 16.1922 35.3566 15.6402C34.8055 15.3647 34.2048 15.0985 33.4707 14.8242" stroke="#0496FF" stroke-width="3" stroke-linecap="round"/>
<path d="M78.9707 19.2305C79.2955 19.4987 80.8355 22.3398 81.6348 24.9716C81.7356 25.5019 81.811 26.0271 81.8685 26.6542C81.9261 27.2812 81.9634 27.9941 82.002 28.7285" stroke="#0496FF" stroke-width="3" stroke-linecap="round"/>
<path d="M63.5 79.9455C63.5 79.9075 71.9004 82.5021 92.6914 82.2553C113.482 82.0085 155.064 81.5541 182.801 81.5153C210.538 81.4765 223.169 81.8671 229.935 82.1112C236.7 82.3553 237.216 82.441 247.356 82.4832C257.496 82.5254 277.244 82.5216 287.794 82.4764C299.1 82.428 303.844 82.1592 310.239 81.8683C315.442 80.8372 318.468 80.176 319.849 79.9455C320.672 79.8672 328.395 76.5 329.5 76.5" stroke="#0496FF" stroke-width="3" stroke-linecap="round"/>
<path d="M32.4082 14.7129C32.559 14.7129 34.5484 20.4221 38.0427 30.3249C41.7033 40.699 43.7177 43.0625 46.1701 45.8725C46.8374 46.637 47.5078 47.2859 47.6945 47.8974C48.502 50.5426 43.2384 53.6852 40.4629 56.3594C38.4523 58.2966 36.9456 60.9719 35.0343 63.4707C34.6366 63.9998 34.3221 64.4059 33.9738 64.7942C33.6255 65.1826 33.253 65.5409 32.8691 65.9102" stroke="#0496FF" stroke-width="3" stroke-linecap="round"/>
<path d="M323.5 28.5C326.401 28.2751 329.179 26.5907 330.069 25.8334C330.528 25.442 330.624 24.6758 330.478 24.1551C329.857 21.9358 326.331 21.9445 319.277 20.6406C316.156 20.0637 314.562 18.2104 313.622 16.5094C313.386 16.0818 313.62 15.5328 314.094 15.2539C316.513 13.8307 319.293 15.8162 321.739 16.8758C325.744 18.6098 329.106 18.5612 337.572 18.5438C343.707 18.5312 347.431 16.6342 352.912 14.9194C354.658 14.1297 355.764 13.4794 356.801 12.9273C357.352 12.6518 357.953 12.3856 358.687 12.1113" stroke="#0496FF" stroke-width="3" stroke-linecap="round"/>
<path d="M359.75 12C359.599 12 357.609 17.7093 354.115 27.612C350.454 37.9861 348.44 40.3496 345.988 43.1596C345.32 43.9241 344.65 44.573 344.463 45.1845C343.656 47.8297 348.919 50.9723 351.695 53.6465C353.705 55.5837 355.212 58.259 357.123 60.7578C357.521 61.2869 357.836 61.693 358.184 62.0813C358.532 62.4697 358.905 62.828 359.289 63.1973" stroke="#0496FF" stroke-width="3" stroke-linecap="round"/>
<path d="M313.109 16.9883C312.957 16.9122 312.365 18.1228 311.585 20.6103C311.32 21.848 311.32 23.0359 311.301 23.9073C311.282 24.7786 311.244 25.2975 311.09 26.5137" stroke="#0496FF" stroke-width="3" stroke-linecap="round"/>
<path d="M60.6797 27.9414C60.6797 30.3582 60.8357 35.7021 61.2041 51.3013C61.7493 57.743 62.0215 62.1043 62.0402 67.7084C62.0589 70.8761 62.0962 74.7014 62.3613 79.0957" stroke="#0496FF" stroke-width="3" stroke-linecap="round"/>
<path d="M330.625 24.7246C330.939 25.5933 331.546 29.1082 331.85 35.9352C332.405 48.4188 331.885 57.2606 331.658 59.0845C331.205 62.7102 330.836 66.3619 330.468 69.2959C330.206 70.5753 330.008 71.8455 329.878 73.1488C329.796 73.7883 329.682 74.3832 329.449 75.793" stroke="#0496FF" stroke-width="3" stroke-linecap="round"/>
<path d="M33.0605 67.7305C34.2315 67.9883 39.3056 70.2017 44.9894 72.1528C46.6829 72.4263 49.1015 72.8187 52.9069 73.3548C54.9624 73.5371 57.2704 73.5371 60.1973 73.6816" stroke="#0496FF" stroke-width="3" stroke-linecap="round"/>
<path d="M359.928 64.2754C359.133 64.4431 355.127 66.8081 350.842 69.0392C346.305 71.4018 342.558 71.3577 339.486 71.9137C337.094 72.332 335.499 72.4068 334.407 72.4821C333.841 72.4825 333.248 72.4065 331.6 72.3281" stroke="#0496FF" stroke-width="3" stroke-linecap="round"/>
</g>
<defs>
<filter id="filter0_d_16_163" x="0.042244" y="0.5" width="371.866" height="113.513" filterUnits="userSpaceOnUse" color-interpolation-filters="sRGB">
<feFlood flood-opacity="0" result="BackgroundImageFix"/>
<feColorMatrix in="SourceAlpha" type="matrix" values="0 0 0 0 0 0 0 0 0 0 0 0 0 0 0 0 0 0 127 0" result="hardAlpha"/>
<feOffset dx="-10" dy="10"/>
<feGaussianBlur stdDeviation="10"/>
<feComposite in2="hardAlpha" operator="out"/>
<feColorMatrix type="matrix" values="0 0 0 0 0 0 0 0 0 0.482353 0 0 0 0 1 0 0 0 0.2 0"/>
<feBlend mode="normal" in2="BackgroundImageFix" result="effect1_dropShadow_16_163"/>
<feBlend mode="normal" in="SourceGraphic" in2="effect1_dropShadow_16_163" result="shape"/>
</filter>
</defs>
</svg>
