<svg width="419" height="112" viewBox="0 0 419 112" fill="none" xmlns="http://www.w3.org/2000/svg">
<g filter="url(#filter0_d_16_195)">
<path d="M42.5 41L33.5 14.5L52 19.5H61.5L70 17H77.5L80.5 27H358.5V17L364.5 14.5L374.5 17L384.5 19.5L392.5 17L404 14.5L392.5 47L406.5 63.5L389.5 70H379.5L374.5 74L353.5 80H256H194.5H80.5L61.5 76.5V70H42.5L33.5 63.5L39.5 55L48 47L42.5 41Z" fill="#250038"/>
<path d="M70 29C70.3194 28.8916 70.6389 28.7832 115.695 28.375C160.751 27.9667 250.533 27.2619 300.881 27.0621C351.229 26.8624 359.423 27.1892 363.996 27.407C368.569 27.6249 369.274 27.7239 370 27.826" stroke="#0496FF" stroke-width="3" stroke-linecap="round"/>
<path d="M70.5312 28.7437C67.63 28.5252 62.5711 27.8128 61.6811 27.0769C61.2212 26.6967 61.1256 25.9522 61.2713 25.4462C61.8922 23.2899 65.4188 23.2984 72.4729 22.0314C75.5937 21.4709 77.1879 19.6702 78.1273 18.0174C78.3635 17.6019 78.1291 17.0685 77.6552 16.7976C75.2362 15.4147 72.4569 17.3439 70.0101 18.3735C66.006 20.0582 62.6432 20.0111 54.1778 19.9942C48.0422 19.9819 44.3189 18.1387 38.8376 16.4725C37.0916 15.7053 35.986 15.0733 34.9484 14.537C34.3973 14.2692 33.7966 14.0106 33.0625 13.7441" stroke="#0496FF" stroke-width="3" stroke-linecap="round"/>
<path d="M78.5625 18.0254C78.8873 18.286 80.4273 21.0466 81.2266 23.6037C81.3274 24.1189 81.4028 24.6293 81.4603 25.2385C81.5179 25.8478 81.5552 26.5404 81.5938 27.254" stroke="#0496FF" stroke-width="3" stroke-linecap="round"/>
<path d="M63 77.4383C63 77.4003 72.8531 79.9894 97.2395 79.7431C121.626 79.4969 170.399 79.0434 202.932 79.0047C235.465 78.966 250.281 79.3558 258.217 79.5993C266.152 79.8429 266.757 79.9284 278.651 79.9706C290.544 80.0127 313.707 80.0089 326.082 79.9638C339.343 79.9155 344.907 79.6472 352.408 79.357C358.511 78.328 362.06 77.6683 363.68 77.4383C364.645 77.3601 373.704 74 375 74" stroke="#0496FF" stroke-width="3" stroke-linecap="round"/>
<path d="M32 13.636C32.1508 13.636 34.1402 19.1833 37.6345 28.8051C41.2951 38.885 43.3095 41.1815 45.7619 43.9117C46.4292 44.6546 47.0996 45.2851 47.2863 45.8793C48.0938 48.4494 42.8302 51.5029 40.0547 54.1012C38.0441 55.9834 36.5374 58.5829 34.6261 61.0108C34.2284 61.5249 33.9139 61.9194 33.5656 62.2968C33.2173 62.6741 32.8448 63.0223 32.4609 63.3811" stroke="#0496FF" stroke-width="3" stroke-linecap="round"/>
<path d="M370.5 28C373.401 27.7814 375.649 26.1769 376.539 25.441C376.999 25.0608 377.095 24.3163 376.949 23.8103C376.328 21.654 372.801 21.6625 365.747 20.3955C362.627 19.835 361.032 18.0343 360.093 16.3815C359.857 15.966 360.091 15.4326 360.565 15.1617C362.984 13.7787 365.763 15.708 368.21 16.7375C372.214 18.4223 375.577 18.3751 384.042 18.3582C390.178 18.346 393.901 16.5028 399.383 14.8366C401.129 14.0693 402.234 13.4374 403.272 12.901C403.823 12.6333 404.424 12.3747 405.158 12.1082" stroke="#0496FF" stroke-width="3" stroke-linecap="round"/>
<path d="M406.22 12C406.069 12 404.08 17.5473 400.586 27.1692C396.925 37.249 394.911 39.5455 392.458 42.2758C391.791 43.0186 391.121 43.6491 390.934 44.2433C390.126 46.8134 395.39 49.8669 398.166 52.4652C400.176 54.3475 401.683 56.9469 403.594 59.3749C403.992 59.889 404.306 60.2835 404.655 60.6608C405.003 61.0382 405.376 61.3864 405.759 61.7451" stroke="#0496FF" stroke-width="3" stroke-linecap="round"/>
<path d="M359.701 15.8468C359.549 15.7729 358.956 16.9491 358.177 19.3661C357.912 20.5687 357.912 21.7229 357.893 22.5695C357.874 23.4162 357.836 23.9203 357.682 25.102" stroke="#0496FF" stroke-width="3" stroke-linecap="round"/>
<path d="M60.2715 26.4893C60.2715 28.8375 60.4275 34.0299 60.7959 49.1866C61.3411 55.4456 61.6133 59.6832 61.632 65.1283C61.6507 68.2061 61.688 71.9229 61.9531 76.1926" stroke="#0496FF" stroke-width="3" stroke-linecap="round"/>
<path d="M377.217 23.3637C377.531 24.2077 378.138 27.623 378.442 34.2563C378.997 46.3859 378.477 54.9769 378.249 56.749C377.796 60.2719 377.428 63.82 377.06 66.6708C376.798 67.914 376.6 69.1481 376.47 70.4144C376.388 71.0357 376.274 71.6138 376.041 72.9836" stroke="#0496FF" stroke-width="3" stroke-linecap="round"/>
<path d="M32.6523 65.1497C33.8233 65.4002 38.8974 67.5509 44.5812 69.4466C46.2746 69.7124 48.6933 70.0937 52.4987 70.6146C54.5542 70.7917 56.8622 70.7917 59.7891 70.9321" stroke="#0496FF" stroke-width="3" stroke-linecap="round"/>
<path d="M406.52 62.7927C405.725 62.9556 401.719 65.2535 397.434 67.4213C392.896 69.7169 389.15 69.674 386.078 70.2144C383.686 70.6208 382.091 70.6934 380.999 70.7666C380.432 70.767 379.839 70.6931 378.191 70.617" stroke="#0496FF" stroke-width="3" stroke-linecap="round"/>
</g>
<defs>
<filter id="filter0_d_16_195" x="0.5" y="0.5" width="417.52" height="111" filterUnits="userSpaceOnUse" color-interpolation-filters="sRGB">
<feFlood flood-opacity="0" result="BackgroundImageFix"/>
<feColorMatrix in="SourceAlpha" type="matrix" values="0 0 0 0 0 0 0 0 0 0 0 0 0 0 0 0 0 0 127 0" result="hardAlpha"/>
<feOffset dx="-10" dy="10"/>
<feGaussianBlur stdDeviation="10"/>
<feComposite in2="hardAlpha" operator="out"/>
<feColorMatrix type="matrix" values="0 0 0 0 0 0 0 0 0 0.482353 0 0 0 0 1 0 0 0 0.2 0"/>
<feBlend mode="normal" in2="BackgroundImageFix" result="effect1_dropShadow_16_195"/>
<feBlend mode="normal" in="SourceGraphic" in2="effect1_dropShadow_16_195" result="shape"/>
</filter>
</defs>
</svg>
