<svg width="372" height="115" viewBox="0 0 372 115" fill="none" xmlns="http://www.w3.org/2000/svg">
<g filter="url(#filter0_dd_16_163)">
<path d="M48 24.5L32 16.5L46 52.5L29 69L50.5 75.5L60.5 73V79.5L78.5 84H119H207H310.5L329 79.5V73H342.5L359 66L346 54L342.5 46.5L346 42.5L355 16.5L342.5 22H329L313.5 16.5L310.5 19V29L81 31.5L78.5 24.5L74 19L60.5 24.5H48Z" fill="#250038" stroke="black"/>
<path d="M68.9023 32.2402C69.1705 32.1055 69.4386 31.9708 107.258 31.4635C145.077 30.9561 220.438 30.0802 262.7 29.832C304.961 29.5838 311.838 29.9898 315.677 30.2606C319.516 30.5313 320.107 30.6544 320.717 30.7812" stroke="#0496FF" stroke-width="3" stroke-linecap="round"/>
<path d="M68.9395 32.2617C66.0382 32.0368 60.9793 31.3036 60.0893 30.5463C59.6294 30.1549 59.5338 29.3887 59.6795 28.8679C60.3004 26.6487 63.827 26.6574 70.8811 25.3535C74.0019 24.7766 75.5961 22.9233 76.5355 21.2223C76.7717 20.7947 76.5373 20.2457 76.0634 19.9668C73.6444 18.5435 70.8651 20.5291 68.4183 21.5887C64.4142 23.3227 61.0514 23.2741 52.586 23.2567C46.4504 23.2441 42.7271 21.3471 37.2458 19.6323C35.4998 18.8426 34.3942 18.1922 33.3566 17.6402C32.8055 17.3647 32.2048 17.0985 31.4707 16.8242" stroke="#0496FF" stroke-width="3" stroke-linecap="round"/>
<path d="M76.9707 21.2305C77.2955 21.4987 78.8355 24.3398 79.6348 26.9716C79.7356 27.5019 79.811 28.0271 79.8685 28.6542C79.9261 29.2812 79.9634 29.9941 80.002 30.7285" stroke="#0496FF" stroke-width="3" stroke-linecap="round"/>
<path d="M61.5 81.9455C61.5 81.9075 69.9004 84.5021 90.6914 84.2553C111.482 84.0085 153.064 83.5541 180.801 83.5153C208.538 83.4765 221.169 83.8671 227.935 84.1112C234.7 84.3553 235.216 84.441 245.356 84.4832C255.496 84.5254 275.244 84.5216 285.794 84.4764C297.1 84.428 301.844 84.1592 308.239 83.8683C313.442 82.8372 316.468 82.176 317.849 81.9455C318.672 81.8672 326.395 78.5 327.5 78.5" stroke="#0496FF" stroke-width="3" stroke-linecap="round"/>
<path d="M30.4082 16.7129C30.559 16.7129 32.5484 22.4221 36.0427 32.3249C39.7033 42.699 41.7177 45.0625 44.1701 47.8725C44.8374 48.637 45.5078 49.2859 45.6945 49.8974C46.502 52.5426 41.2384 55.6852 38.4629 58.3594C36.4523 60.2966 34.9456 62.9719 33.0343 65.4707C32.6366 65.9998 32.3221 66.4059 31.9738 66.7942C31.6255 67.1826 31.253 67.5409 30.8691 67.9102" stroke="#0496FF" stroke-width="3" stroke-linecap="round"/>
<path d="M321.5 30.5C324.401 30.2751 327.179 28.5907 328.069 27.8334C328.528 27.442 328.624 26.6758 328.478 26.1551C327.857 23.9358 324.331 23.9445 317.277 22.6406C314.156 22.0637 312.562 20.2104 311.622 18.5094C311.386 18.0818 311.62 17.5328 312.094 17.2539C314.513 15.8307 317.293 17.8162 319.739 18.8758C323.744 20.6098 327.106 20.5612 335.572 20.5438C341.707 20.5312 345.431 18.6342 350.912 16.9194C352.658 16.1297 353.764 15.4794 354.801 14.9273C355.352 14.6518 355.953 14.3856 356.687 14.1113" stroke="#0496FF" stroke-width="3" stroke-linecap="round"/>
<path d="M357.75 14C357.599 14 355.609 19.7093 352.115 29.612C348.454 39.9861 346.44 42.3496 343.988 45.1596C343.32 45.9241 342.65 46.573 342.463 47.1845C341.656 49.8297 346.919 52.9723 349.695 55.6465C351.705 57.5837 353.212 60.259 355.123 62.7578C355.521 63.2869 355.836 63.693 356.184 64.0813C356.532 64.4697 356.905 64.828 357.289 65.1973" stroke="#0496FF" stroke-width="3" stroke-linecap="round"/>
<path d="M311.109 18.9883C310.957 18.9122 310.365 20.1228 309.585 22.6103C309.32 23.848 309.32 25.0359 309.301 25.9073C309.282 26.7786 309.244 27.2975 309.09 28.5137" stroke="#0496FF" stroke-width="3" stroke-linecap="round"/>
<path d="M58.6797 29.9414C58.6797 32.3582 58.8357 37.7021 59.2041 53.3013C59.7493 59.743 60.0215 64.1043 60.0402 69.7084C60.0589 72.8761 60.0962 76.7014 60.3613 81.0957" stroke="#0496FF" stroke-width="3" stroke-linecap="round"/>
<path d="M328.625 26.7246C328.939 27.5933 329.546 31.1082 329.85 37.9352C330.405 50.4188 329.885 59.2606 329.658 61.0845C329.205 64.7102 328.836 68.3619 328.468 71.2959C328.206 72.5753 328.008 73.8455 327.878 75.1488C327.796 75.7883 327.682 76.3832 327.449 77.793" stroke="#0496FF" stroke-width="3" stroke-linecap="round"/>
<path d="M31.0605 69.7305C32.2315 69.9883 37.3056 72.2017 42.9894 74.1528C44.6829 74.4263 47.1015 74.8187 50.9069 75.3548C52.9624 75.5371 55.2704 75.5371 58.1973 75.6816" stroke="#0496FF" stroke-width="3" stroke-linecap="round"/>
<path d="M357.928 66.2754C357.133 66.4431 353.127 68.8081 348.842 71.0392C344.305 73.4018 340.558 73.3577 337.486 73.9137C335.094 74.332 333.499 74.4068 332.407 74.4821C331.841 74.4825 331.248 74.4065 329.6 74.3281" stroke="#0496FF" stroke-width="3" stroke-linecap="round"/>
</g>
<defs>
<filter id="filter0_dd_16_163" x="0.042244" y="0.5" width="371.866" height="113.513" filterUnits="userSpaceOnUse" color-interpolation-filters="sRGB">
<feFlood flood-opacity="0" result="BackgroundImageFix"/>
<feColorMatrix in="SourceAlpha" type="matrix" values="0 0 0 0 0 0 0 0 0 0 0 0 0 0 0 0 0 0 127 0" result="hardAlpha"/>
<feOffset dx="-4" dy="4"/>
<feGaussianBlur stdDeviation="4"/>
<feComposite in2="hardAlpha" operator="out"/>
<feColorMatrix type="matrix" values="0 0 0 0 0.0156863 0 0 0 0 0.588235 0 0 0 0 1 0 0 0 0.4 0"/>
<feBlend mode="normal" in2="BackgroundImageFix" result="effect1_dropShadow_16_163"/>
<feColorMatrix in="SourceAlpha" type="matrix" values="0 0 0 0 0 0 0 0 0 0 0 0 0 0 0 0 0 0 127 0" result="hardAlpha"/>
<feOffset dx="-8" dy="8"/>
<feGaussianBlur stdDeviation="10"/>
<feComposite in2="hardAlpha" operator="out"/>
<feColorMatrix type="matrix" values="0 0 0 0 0.0156863 0 0 0 0 0.588235 0 0 0 0 1 0 0 0 0.6 0"/>
<feBlend mode="normal" in2="effect1_dropShadow_16_163" result="effect2_dropShadow_16_163"/>
<feBlend mode="normal" in="SourceGraphic" in2="effect2_dropShadow_16_163" result="shape"/>
</filter>
</defs>
</svg>
