<svg width="332" height="75" viewBox="0 0 332 75" fill="none" xmlns="http://www.w3.org/2000/svg">
<path d="M40.9023 20.2402C41.1705 20.1055 41.4386 19.9708 79.2576 19.4635C117.077 18.9561 192.438 18.0802 234.7 17.832C276.961 17.5838 283.838 17.9898 287.677 18.2606C291.516 18.5313 292.107 18.6544 292.717 18.7812" stroke="#0496FF" stroke-width="3" stroke-linecap="round"/>
<path d="M40.9395 20.2617C38.0382 20.0368 32.9793 19.3036 32.0893 18.5463C31.6294 18.1549 31.5338 17.3887 31.6795 16.8679C32.3004 14.6487 35.827 14.6574 42.8811 13.3535C46.0019 12.7766 47.5961 10.9233 48.5355 9.22228C48.7717 8.79466 48.5373 8.24566 48.0634 7.96683C45.6444 6.54354 42.8651 8.5291 40.4183 9.5887C36.4142 11.3227 33.0514 11.2741 24.586 11.2567C18.4504 11.2441 14.7271 9.34707 9.24584 7.63229C7.49977 6.84262 6.39424 6.19225 5.35658 5.64021C4.80555 5.36467 4.20484 5.09848 3.4707 4.82422" stroke="#0496FF" stroke-width="3" stroke-linecap="round"/>
<path d="M48.9707 9.23047C49.2955 9.49873 50.8355 12.3398 51.6348 14.9716C51.7356 15.5019 51.811 16.0271 51.8685 16.6542C51.9261 17.2812 51.9634 17.9941 52.002 18.7285" stroke="#0496FF" stroke-width="3" stroke-linecap="round"/>
<path d="M33.5 69.9455C33.5 69.9075 41.9004 72.5021 62.6914 72.2553C83.4823 72.0085 125.064 71.5541 152.801 71.5153C180.538 71.4765 193.169 71.8671 199.935 72.1112C206.7 72.3553 207.216 72.441 217.356 72.4832C227.496 72.5254 247.244 72.5216 257.794 72.4764C269.1 72.428 273.844 72.1592 280.239 71.8683C285.442 70.8372 288.468 70.176 289.849 69.9455C290.672 69.8672 298.395 66.5 299.5 66.5" stroke="#0496FF" stroke-width="3" stroke-linecap="round"/>
<path d="M2.4082 4.71289C2.55902 4.71289 4.5484 10.4221 8.04269 20.3249C11.7033 30.699 13.7177 33.0625 16.1701 35.8725C16.8374 36.637 17.5078 37.2859 17.6945 37.8974C18.502 40.5426 13.2384 43.6852 10.4629 46.3594C8.45231 48.2966 6.94563 50.9719 5.0343 53.4707C4.63664 53.9998 4.32211 54.4059 3.97381 54.7942C3.62551 55.1826 3.25297 55.5409 2.86914 55.9102" stroke="#0496FF" stroke-width="3" stroke-linecap="round"/>
<path d="M293.5 18.5C296.401 18.2751 299.179 16.5907 300.069 15.8334C300.528 15.442 300.624 14.6758 300.478 14.1551C299.857 11.9358 296.331 11.9445 289.277 10.6406C286.156 10.0637 284.562 8.21043 283.622 6.50938C283.386 6.08177 283.62 5.53277 284.094 5.25394C286.513 3.83065 289.293 5.81621 291.739 6.87581C295.744 8.60977 299.106 8.56121 307.572 8.54382C313.707 8.53121 317.431 6.63418 322.912 4.9194C324.658 4.12973 325.764 3.47936 326.801 2.92731C327.352 2.65178 327.953 2.38559 328.687 2.11133" stroke="#0496FF" stroke-width="3" stroke-linecap="round"/>
<path d="M329.75 2C329.599 2 327.609 7.70926 324.115 17.612C320.454 27.9861 318.44 30.3496 315.988 33.1596C315.32 33.9241 314.65 34.573 314.463 35.1845C313.656 37.8297 318.919 40.9723 321.695 43.6465C323.705 45.5837 325.212 48.259 327.123 50.7578C327.521 51.2869 327.836 51.693 328.184 52.0813C328.532 52.4697 328.905 52.828 329.289 53.1973" stroke="#0496FF" stroke-width="3" stroke-linecap="round"/>
<path d="M283.109 6.98828C282.957 6.91223 282.365 8.12279 281.585 10.6103C281.32 11.848 281.32 13.0359 281.301 13.9073C281.282 14.7786 281.244 15.2975 281.09 16.5137" stroke="#0496FF" stroke-width="3" stroke-linecap="round"/>
<path d="M30.6797 17.9414C30.6797 20.3582 30.8357 25.7021 31.2041 41.3013C31.7493 47.743 32.0215 52.1043 32.0402 57.7084C32.0589 60.8761 32.0962 64.7014 32.3613 69.0957" stroke="#0496FF" stroke-width="3" stroke-linecap="round"/>
<path d="M300.625 14.7246C300.939 15.5933 301.546 19.1082 301.85 25.9352C302.405 38.4188 301.885 47.2606 301.658 49.0845C301.205 52.7102 300.836 56.3619 300.468 59.2959C300.206 60.5753 300.008 61.8455 299.878 63.1488C299.796 63.7883 299.682 64.3832 299.449 65.793" stroke="#0496FF" stroke-width="3" stroke-linecap="round"/>
<path d="M3.06055 57.7305C4.2315 57.9883 9.30563 60.2017 14.9894 62.1528C16.6829 62.4263 19.1015 62.8187 22.9069 63.3548C24.9624 63.5371 27.2704 63.5371 30.1973 63.6816" stroke="#0496FF" stroke-width="3" stroke-linecap="round"/>
<path d="M329.928 54.2754C329.133 54.4431 325.127 56.8081 320.842 59.0392C316.305 61.4018 312.558 61.3577 309.486 61.9137C307.094 62.332 305.499 62.4068 304.407 62.4821C303.841 62.4825 303.248 62.4065 301.6 62.3281" stroke="#0496FF" stroke-width="3" stroke-linecap="round"/>
</svg>
