<svg width="379" height="72" viewBox="0 0 379 72" fill="none" xmlns="http://www.w3.org/2000/svg">
<path d="M40 19C40.3194 18.8916 40.6389 18.7832 85.6947 18.375C130.751 17.9667 220.533 17.2619 270.881 17.0621C321.229 16.8624 329.423 17.1892 333.996 17.407C338.569 17.6249 339.274 17.7239 340 17.826" stroke="#0496FF" stroke-width="3" stroke-linecap="round"/>
<path d="M40.5312 18.7437C37.63 18.5252 32.5711 17.8128 31.6811 17.0769C31.2212 16.6967 31.1256 15.9522 31.2713 15.4462C31.8922 13.2899 35.4188 13.2984 42.4729 12.0314C45.5937 11.4709 47.1879 9.67022 48.1273 8.01742C48.3635 7.60193 48.1291 7.06851 47.6552 6.79758C45.2362 5.41467 42.4569 7.34391 40.0101 8.37345C36.006 10.0582 32.6432 10.0111 24.1778 9.99415C18.0422 9.9819 14.3189 8.13868 8.83764 6.47254C7.09156 5.70526 5.98604 5.07334 4.94838 4.53695C4.39734 4.26923 3.79664 4.01059 3.0625 3.74411" stroke="#0496FF" stroke-width="3" stroke-linecap="round"/>
<path d="M48.5625 8.02539C48.8873 8.28604 50.4273 11.0466 51.2266 13.6037C51.3274 14.1189 51.4028 14.6293 51.4603 15.2385C51.5179 15.8478 51.5552 16.5404 51.5938 17.254" stroke="#0496FF" stroke-width="3" stroke-linecap="round"/>
<path d="M33 67.4383C33 67.4003 42.8531 69.9894 67.2395 69.7431C91.6259 69.4969 140.399 69.0434 172.932 69.0047C205.465 68.966 220.281 69.3558 228.217 69.5993C236.152 69.8429 236.757 69.9284 248.651 69.9706C260.544 70.0127 283.707 70.0089 296.082 69.9638C309.343 69.9155 314.907 69.6472 322.408 69.357C328.511 68.328 332.06 67.6683 333.68 67.4383C334.645 67.3601 343.704 64 345 64" stroke="#0496FF" stroke-width="3" stroke-linecap="round"/>
<path d="M2 3.63596C2.15082 3.63596 4.1402 9.18328 7.63448 18.8051C11.2951 28.885 13.3095 31.1815 15.7619 33.9117C16.4292 34.6546 17.0996 35.2851 17.2863 35.8793C18.0938 38.4494 12.8302 41.5029 10.0547 44.1012C8.04411 45.9834 6.53742 48.5829 4.62609 51.0108C4.22844 51.5249 3.91391 51.9194 3.56561 52.2968C3.2173 52.6741 2.84477 53.0223 2.46094 53.3811" stroke="#0496FF" stroke-width="3" stroke-linecap="round"/>
<path d="M340.5 18C343.401 17.7814 345.649 16.1769 346.539 15.441C346.999 15.0608 347.095 14.3163 346.949 13.8103C346.328 11.654 342.801 11.6625 335.747 10.3955C332.627 9.83498 331.032 8.03429 330.093 6.3815C329.857 5.96601 330.091 5.43259 330.565 5.16166C332.984 3.77874 335.763 5.70798 338.21 6.73753C342.214 8.4223 345.577 8.37513 354.042 8.35823C360.178 8.34598 363.901 6.50275 369.383 4.83661C371.129 4.06933 372.234 3.43741 373.272 2.90103C373.823 2.6333 374.424 2.37466 375.158 2.10818" stroke="#0496FF" stroke-width="3" stroke-linecap="round"/>
<path d="M376.22 2C376.069 2 374.08 7.54732 370.586 17.1692C366.925 27.249 364.911 29.5455 362.458 32.2758C361.791 33.0186 361.121 33.6491 360.934 34.2433C360.126 36.8134 365.39 39.8669 368.166 42.4652C370.176 44.3475 371.683 46.9469 373.594 49.3749C373.992 49.889 374.306 50.2835 374.655 50.6608C375.003 51.0382 375.376 51.3864 375.759 51.7451" stroke="#0496FF" stroke-width="3" stroke-linecap="round"/>
<path d="M329.701 5.84681C329.549 5.77292 328.956 6.94915 328.177 9.36608C327.912 10.5687 327.912 11.7229 327.893 12.5695C327.874 13.4162 327.836 13.9203 327.682 15.102" stroke="#0496FF" stroke-width="3" stroke-linecap="round"/>
<path d="M30.2715 16.4893C30.2715 18.8375 30.4275 24.0299 30.7959 39.1866C31.3411 45.4456 31.6133 49.6832 31.632 55.1283C31.6507 58.2061 31.688 61.9229 31.9531 66.1926" stroke="#0496FF" stroke-width="3" stroke-linecap="round"/>
<path d="M347.217 13.3637C347.531 14.2077 348.138 17.623 348.442 24.2563C348.997 36.3859 348.477 44.9769 348.249 46.749C347.796 50.2719 347.428 53.82 347.06 56.6708C346.798 57.914 346.6 59.1481 346.47 60.4144C346.388 61.0357 346.274 61.6138 346.041 62.9836" stroke="#0496FF" stroke-width="3" stroke-linecap="round"/>
<path d="M2.65234 55.1497C3.8233 55.4002 8.89742 57.5509 14.5812 59.4466C16.2746 59.7124 18.6933 60.0937 22.4987 60.6146C24.5542 60.7917 26.8622 60.7917 29.7891 60.9321" stroke="#0496FF" stroke-width="3" stroke-linecap="round"/>
<path d="M376.52 52.7927C375.725 52.9556 371.719 55.2535 367.434 57.4213C362.896 59.7169 359.15 59.674 356.078 60.2144C353.686 60.6208 352.091 60.6934 350.999 60.7666C350.432 60.767 349.839 60.6931 348.191 60.617" stroke="#0496FF" stroke-width="3" stroke-linecap="round"/>
</svg>
