<svg width="40" height="50" viewBox="0 0 40 50" fill="none" xmlns="http://www.w3.org/2000/svg">
<path d="M19.7446 1.08984C19.7446 1.12755 19.7174 2.43088 19.5925 4.8359C19.5342 5.95975 19.3276 6.87645 19.0571 7.87441C18.7866 8.87238 18.4179 9.92103 17.8786 11.1049C17.3393 12.2888 16.6404 13.576 15.8039 14.8514C14.9673 16.1268 14.0142 17.3512 12.5737 18.6945C11.1331 20.0377 9.234 21.4626 7.86847 22.378C4.80144 24.0728 3.8333 24.2098 2.1668 24.702C1.82165 24.8158 1.62475 24.8615 1.24609 24.8799" stroke="#0496FF" stroke-width="2" stroke-linecap="round"/>
<path d="M20 1C20 1.03771 20.0272 2.34104 20.1521 4.74606C20.2105 5.86991 20.417 6.7866 20.6875 7.78457C20.958 8.78254 21.3267 9.83119 21.866 11.0151C22.4054 12.1989 23.1042 13.4862 23.9408 14.7616C24.7773 16.0369 25.7304 17.2614 27.171 18.6046C28.6115 19.9478 30.5106 21.3727 31.8762 22.2881C34.9432 23.983 35.9113 24.1199 37.5778 24.6122C37.923 24.7259 38.1199 24.7717 38.4985 24.79" stroke="#0496FF" stroke-width="2" stroke-linecap="round"/>
<path d="M19.4985 48.79C19.4985 48.7523 19.4713 47.449 19.3464 45.044C19.2881 43.9201 19.0815 43.0034 18.811 42.0055C18.5405 41.0075 18.1718 39.9588 17.6325 38.775C17.0932 37.5911 16.3943 36.3038 15.5578 35.0285C14.7212 33.7531 13.7681 32.5286 12.3276 31.1854C10.887 29.8422 8.98791 28.4173 7.62238 27.5019C4.55534 25.8071 3.58721 25.6701 1.92071 25.1779C1.57556 25.0641 1.37865 25.0183 1 25" stroke="#0496FF" stroke-width="2" stroke-linecap="round"/>
<path d="M19.7539 48.8799C19.7539 48.8422 19.7811 47.5388 19.906 45.1338C19.9644 44.01 20.1709 43.0933 20.4414 42.0953C20.7119 41.0973 21.0806 40.0487 21.6199 38.8648C22.1593 37.681 22.8581 36.3937 23.6947 35.1183C24.5312 33.8429 25.4843 32.6185 26.9249 31.2753C28.3654 29.932 30.2645 28.5071 31.6301 27.5917C34.6971 25.8969 35.6652 25.7599 37.3317 25.2677C37.6769 25.1539 37.8738 25.1082 38.2524 25.0898" stroke="#0496FF" stroke-width="2" stroke-linecap="round"/>
</svg>
