<svg width="354" height="68" viewBox="0 0 354 68" fill="none" xmlns="http://www.w3.org/2000/svg">
<path d="M1.94141 8.01953C2.09223 8.01953 2.24305 8.01953 61.111 6.6151C119.979 5.21066 237.56 2.4018 297.805 1.5033C358.05 0.604804 357.396 1.7018 347.547 3.93625C337.697 6.1707 318.672 9.50937 262.37 11.6921C206.068 13.8748 113.066 14.8003 64.6393 15.3635C16.2123 15.9266 15.1784 16.0994 14.1289 16.3611C13.0795 16.6228 12.0456 16.9683 35.4123 17.9274C58.7789 18.8866 106.577 20.4489 153.621 20.6788C200.664 20.9087 245.504 19.7589 269.447 19.4605C293.39 19.162 295.078 19.7498 262.397 21.5389C229.717 23.328 162.617 26.3006 126.76 28.1935C90.9024 30.0864 88.3204 30.8096 109.357 31.8151C130.394 32.8205 175.129 34.0864 197.676 35.1987C220.224 36.311 219.228 37.2314 216.531 38.2792C213.834 39.327 209.466 40.4742 194.011 41.6137C178.557 42.7532 152.149 43.8502 135.911 44.911C119.672 45.9718 114.402 46.963 112.962 47.8836C111.522 48.8042 114.072 49.6241 129.706 50.6052C145.34 51.5864 173.98 52.704 186.851 53.845C199.723 54.986 195.958 56.1165 189.57 57.4639C183.182 58.8114 174.286 60.3415 172.705 61.8078C171.124 63.2741 177.127 64.6302 183.312 66.0273" stroke="#0496FF" stroke-width="2" stroke-linecap="round"/>
</svg>
