<svg width="173" height="74" viewBox="0 0 173 74" fill="none" xmlns="http://www.w3.org/2000/svg">
<path d="M1.00781 4.76173C4.9859 10.8362 18.1399 18.9961 33.3883 23.3244C54.0138 29.179 70.4993 29.8063 78.165 30.0347C82.025 30.1497 85.8307 29.8157 96.5437 27.9355C107.257 26.0552 124.764 22.5245 135.444 19.9244C149.641 16.4686 159.766 9.48981 169.708 3.00028C172.686 1.05666 171.76 2.32313 170.694 3.28286C165.473 7.98498 157.18 15.2331 136.117 23.5145C125.284 27.7732 106.611 31.4325 96.1518 33.9535C83.7131 36.9516 79.001 36.8906 65.241 34.803C53.9633 33.092 34.2217 28.5401 23.0864 26.3892C11.9511 24.2383 10.0859 24.2383 9.90871 25.073C9.31408 27.8747 20.8238 32.129 36.8764 37.3842C52.8912 42.627 67.3837 44.1558 84.7534 43.5294C96.3196 43.1123 113.307 39.9047 121.201 39.0853C127.308 38.4514 108.744 40.9338 81.7762 42.1782C61.4316 43.117 52.5812 43.8206 51.533 43.9645C49.9551 44.1812 60.7951 47.2562 75.5353 49.6687C91.881 52.344 101.906 51.1058 102.897 51.0079C104.551 50.8446 97.3985 54.5777 90.7714 56.4193C85.5365 57.8741 68.6151 58.2465 47.1383 58.7351C40.1483 58.8941 41.1083 59.3333 46.0618 60.4371C59.913 63.5237 73.9655 65.764 80.7322 66.9312C82.7717 67.283 81.5396 68.739 80.0511 69.7799C78.5627 70.8207 76.7425 71.8095 76.4655 72.3949C76.1885 72.9802 77.5098 73.1324 79.2812 72.832" stroke="#0496FF" stroke-width="2" stroke-linecap="round"/>
</svg>
