<svg width="175" height="75" viewBox="0 0 175 75" fill="none" xmlns="http://www.w3.org/2000/svg">
<path d="M2.00781 4.76173C5.9859 10.8362 19.1399 18.9961 34.3883 23.3244C55.0138 29.179 71.4993 29.8063 79.165 30.0347C83.025 30.1497 86.8307 29.8157 97.5437 27.9355C108.257 26.0552 125.764 22.5245 136.444 19.9244C150.641 16.4686 160.766 9.48981 170.708 3.00028C173.686 1.05666 172.76 2.32313 171.694 3.28286C166.473 7.98498 158.18 15.2331 137.117 23.5145C126.284 27.7732 107.611 31.4325 97.1518 33.9535C84.7131 36.9516 80.001 36.8906 66.241 34.803C54.9633 33.092 35.2217 28.5401 24.0864 26.3892C12.9511 24.2383 11.0859 24.2383 10.9087 25.073C10.3141 27.8747 21.8238 32.129 37.8764 37.3842C53.8912 42.627 68.3837 44.1558 85.7534 43.5294C97.3196 43.1123 114.307 39.9047 122.201 39.0853C128.308 38.4514 109.744 40.9338 82.7762 42.1782C62.4316 43.117 53.5812 43.8206 52.533 43.9645C50.9551 44.1812 61.7951 47.2562 76.5353 49.6687C92.881 52.344 102.906 51.1058 103.897 51.0079C105.551 50.8446 98.3985 54.5777 91.7714 56.4193C86.5365 57.8741 69.6151 58.2465 48.1383 58.7351C41.1483 58.8941 42.1083 59.3333 47.0618 60.4371C60.913 63.5237 74.9655 65.764 81.7322 66.9312C83.7717 67.283 82.5396 68.739 81.0511 69.7799C79.5627 70.8207 77.7425 71.8095 77.4655 72.3949C77.1885 72.9802 78.5098 73.1324 80.2812 72.832" stroke="url(#paint0_linear_3_82)" stroke-width="3" stroke-linecap="round"/>
<defs>
<linearGradient id="paint0_linear_3_82" x1="87.3626" y1="1.98213" x2="87.3626" y2="72.9823" gradientUnits="userSpaceOnUse">
<stop stop-color="#0496FF"/>
<stop offset="1" stop-color="#0496FF" stop-opacity="0"/>
</linearGradient>
</defs>
</svg>
