<svg width="175" height="75" viewBox="0 0 175 75" fill="none" xmlns="http://www.w3.org/2000/svg">
<path d="M2.00781 4.76173C5.9859 10.8362 15.4511 16.5221 30.5 21.5C41.6117 25.1756 63 27 63 27C63 27 83.0511 28.0406 96.5 27C109.949 25.9594 122.415 24.0063 136.444 19.9244C150.473 15.8426 160.766 9.48981 170.708 3.00028C173.686 1.05666 172.76 2.32313 171.694 3.28286C166.473 7.98498 158.18 15.2331 137.117 23.5145C126.284 27.7732 115.848 30.5465 103.5 32C91.1518 33.4535 78.3535 34.803 70 34.803C59.5 34.803 53.5 34.803 44 32C37.7657 30.1606 20.5913 27.0584 17 25.5C14.5 24.4151 26 32 40 36.5C54 41 74.5962 42.1085 88 40.5C100.5 39 137.174 31.0524 144.5 28C150.5 25.5 116 40.7941 103.5 43C83.4436 46.5394 54.5 46.5 40 45C38.4157 44.8361 59.0637 51.5 74 51.5C91.7714 51.5 120.009 45.0979 121 45C122.655 44.8366 104.716 53.7973 91.5 56C78.2838 58.2027 82.0049 58.5 63 58.5C56 58.5 61.5465 58.3962 66.5 59.5C80.3511 62.5866 92.7333 61.3328 99.5 62.5C101.54 62.8518 84.5396 68.739 83.0511 69.7799C81.5627 70.8207 76.8523 72.1865 77.4655 72.3949C79.1885 72.9802 80.5098 73.1324 82.2812 72.832" stroke="url(#paint0_linear_3_82)" stroke-width="3" stroke-linecap="round"/>
<defs>
<linearGradient id="paint0_linear_3_82" x1="87.3626" y1="1.98213" x2="87.3626" y2="72.9823" gradientUnits="userSpaceOnUse">
<stop stop-color="#0496FF"/>
<stop offset="1" stop-color="#0496FF" stop-opacity="0"/>
</linearGradient>
</defs>
</svg>
