<svg width="370" height="67" viewBox="0 0 370 67" fill="none" xmlns="http://www.w3.org/2000/svg">
<path d="M1 4.71426C1.28746 4.80965 1.57492 4.90504 49.3152 4.68541C97.0555 4.46578 192.24 3.92824 244.46 3.23819C296.68 2.54813 303.052 1.72184 312.091 1.29617C321.13 0.87051 332.642 0.87051 342.854 1.5144C353.066 2.15828 361.628 3.44606 365.491 4.31828C369.355 5.19051 368.26 5.60817 365.688 6.29512C363.116 6.98207 359.099 7.92567 305.004 7.60094C250.908 7.27621 146.855 5.65457 92.714 5.15047C38.5734 4.64637 37.4983 5.30895 37.4407 6.09758C37.3832 6.88621 38.3758 7.78082 68.319 8.69221C98.2622 9.6036 157.126 10.5047 190.498 10.6433C223.869 10.782 249.951 10.7432 257.159 10.4078C253.639 11.808 225.821 14.146 220.5 14.5C182.92 17 175.188 16.9922 163 17.5C127 19 114.615 18.356 88.5 19C62.3852 19.644 67.1012 20.3457 90 20.5C112.899 20.6543 164.25 24.35 186.583 24.5438C208.917 24.7375 211.504 25.4577 210.5 26C208.483 27.0892 202.927 28.101 186.838 29.2934C171.809 30.4073 142.738 30.7927 146.884 31.5129C151.031 32.233 189.249 32.826 197.569 34.4998C205.889 36.1736 183.152 38.9103 168.138 40.2137C153.124 41.5172 146.521 41.3045 143.588 40.9996C134.673 40.0732 178.233 40.7525 185.271 42.4625C187.425 42.9858 179.26 46.0864 177.465 49.6937C178.666 56.2607 181.468 61.9782 182.92 64.3766C182.974 65.1947 181.644 65.2024 180.273 65.2104" stroke="url(#paint0_linear_5_192)" stroke-width="2" stroke-linecap="round"/>
<defs>
<linearGradient id="paint0_linear_5_192" x1="184.507" y1="1" x2="184.507" y2="65.2104" gradientUnits="userSpaceOnUse">
<stop stop-color="#0496FF"/>
<stop offset="1" stop-color="#0496FF" stop-opacity="0"/>
</linearGradient>
</defs>
</svg>
