<svg width="370" height="67" viewBox="0 0 370 67" fill="none" xmlns="http://www.w3.org/2000/svg">
<path d="M1 4.71426C1.28746 4.80965 1.57492 4.90504 49.3152 4.68541C97.0555 4.46578 192.24 3.92824 244.46 3.23819C296.68 2.54813 303.052 1.72184 312.091 1.29617C321.13 0.87051 332.642 0.87051 342.854 1.5144C353.066 2.15828 361.628 3.44606 365.491 4.31828C369.355 5.19051 368.26 5.60817 365.688 6.29512C363.116 6.98207 359.099 7.92567 305.004 7.60094C250.908 7.27621 146.855 5.65457 92.714 5.15047C38.5734 4.64637 37.4983 5.30895 37.4407 6.09758C37.3832 6.88621 38.3758 7.78082 68.319 8.69221C98.2622 9.6036 157.126 10.5047 190.498 10.6433C223.869 10.782 229.965 10.1311 237.173 9.7957C244.381 9.46035 252.517 9.46035 256.153 9.54608C259.789 9.6318 258.679 9.80324 257.159 10.4078C253.639 11.808 250.687 14.0266 245.812 16.1881C242.18 17.7983 235.628 18.9735 206.302 20.2408C176.975 21.5081 124.926 22.4543 98.8117 23.0983C72.6968 23.7423 74.0929 24.0556 96.9917 24.2099C119.89 24.3641 164.25 24.35 186.583 24.5438C208.917 24.7375 207.88 25.1397 206.876 25.6821C204.859 26.7713 202.927 28.101 186.838 29.2934C171.809 30.4073 142.738 30.7927 146.884 31.5129C151.031 32.233 189.249 32.826 197.569 34.4998C205.889 36.1736 183.152 38.9103 168.138 40.2137C153.124 41.5172 146.521 41.3045 143.588 40.9996C134.673 40.0732 178.233 40.7525 185.271 42.4625C187.425 42.9858 179.26 46.0864 177.465 49.6937C178.666 56.2607 181.468 61.9782 182.92 64.3766C182.974 65.1947 181.644 65.2024 180.273 65.2104" stroke="url(#paint0_linear_5_192)" stroke-width="2" stroke-linecap="round"/>
<defs>
<linearGradient id="paint0_linear_5_192" x1="184.507" y1="1" x2="184.507" y2="65.2104" gradientUnits="userSpaceOnUse">
<stop stop-color="#0496FF"/>
<stop offset="1" stop-color="#0496FF" stop-opacity="0"/>
</linearGradient>
</defs>
</svg>
